<?xml version="1.0" encoding="utf-8"?>
<!-- Generator: Adobe Illustrator 21.0.0, SVG Export Plug-In . SVG Version: 6.00 Build 0)  -->
<svg version="1.1" id="launcher" xmlns="http://www.w3.org/2000/svg" xmlns:xlink="http://www.w3.org/1999/xlink" x="0px" y="0px"
	 viewBox="0 0 67 67" style="enable-background:new 0 0 67 67;" xml:space="preserve">
<style type="text/css">
	.st0{fill:#555555;}
</style>
<path class="st0" d="M48.4,11.2l7.8,7.8c2.2,2.2,2.2,5.7,0,7.8l-6.3,6.3c2.7,0.4,4.7,2.7,4.7,5.5v12.9c0,3.1-2.5,5.5-5.5,5.5H15.9
	c-3.1,0-5.5-2.5-5.5-5.5V18.3c0-3.1,2.5-5.5,5.5-5.5h12.9c2.7,0,5.1,2,5.5,4.7l6.3-6.3C42.7,9,46.2,9,48.4,11.2
	C48.4,11.2,48.4,11.2,48.4,11.2z M14,51.5c0,1,0.8,1.8,1.8,1.8h14.7l0-16.6H14V51.5z M34.3,53.3H49c1,0,1.8-0.8,1.8-1.8V38.6
	c0-1-0.8-1.8-1.8-1.8H34.3V53.3z M28.8,16.5H15.9c-1,0-1.8,0.8-1.8,1.8v14.7h16.6V18.3C30.6,17.3,29.8,16.5,28.8,16.5z M34.3,28.3
	v4.8h4.8L34.3,28.3z M43.2,13.8l-7.8,7.8c-0.7,0.7-0.7,1.9,0,2.6l7.8,7.8c0.7,0.7,1.9,0.7,2.6,0l7.8-7.8c0.7-0.7,0.7-1.9,0-2.6
	l-7.8-7.8C45.1,13,43.9,13,43.2,13.8L43.2,13.8z"/>
</svg>
