<?xml version="1.0" encoding="utf-8"?>
<!-- Generator: Adobe Illustrator 21.0.0, SVG Export Plug-In . SVG Version: 6.00 Build 0)  -->
<svg version="1.1" id="settings" xmlns="http://www.w3.org/2000/svg" xmlns:xlink="http://www.w3.org/1999/xlink" x="0px" y="0px"
	 viewBox="0 0 67 67" style="enable-background:new 0 0 67 67;" xml:space="preserve">
<style type="text/css">
	.st0{fill:#555555;}
</style>
<path class="st0" d="M36.2,58.5h-5.2c-1.2,0-2.2-0.9-2.4-2.1c-0.4-2.3-2.3-3.9-4.6-3.9c-1,0-1.9,0.3-2.8,0.9c-1,0.7-2.4,0.6-3.2-0.3
	l-4-4c-0.9-0.9-1-2.3-0.3-3.2c0.6-0.8,0.9-1.8,0.9-2.8c0-2.3-1.6-4.2-3.9-4.6c-1.2-0.2-2.1-1.2-2.1-2.4v-5.6c0-1.2,0.9-2.2,2.1-2.4
	c2.3-0.4,3.9-2.3,3.9-4.6c0-0.9-0.3-1.8-0.8-2.6c-0.7-1-0.5-2.4,0.3-3.2l3.9-3.9c0.9-0.9,2.3-1,3.2-0.3c0.8,0.6,1.8,0.9,2.8,0.9
	c2.3,0,4.2-1.6,4.6-3.9c0.2-1.2,1.2-2.1,2.4-2.1h5.2c1.2,0,2.2,0.9,2.4,2.1c0.4,2.3,2.3,3.9,4.6,3.9c1,0,1.9-0.3,2.8-0.9
	c1-0.7,2.4-0.6,3.2,0.3l3.7,3.7c0.8,0.8,1,2.2,0.4,3.2c-0.4,0.7-0.6,1.6-0.9,2.5c-0.1,0.2-0.1,0.4-0.2,0.6c-0.6,2.3,3.3,3.8,4.6,4.2
	c1.1,0.3,1.8,1.3,1.8,2.4v5.5c0,1.3-1,2.4-2.3,2.5c-2.8,0.2-4.2,1.8-4,4.6c0.1,1.1,0.4,2.2,1,2.9c0.8,1.1,0.6,2.5-0.3,3.5l-3.7,3.7
	c-0.9,0.9-2.3,1-3.2,0.3c-0.8-0.6-1.8-0.9-2.8-0.9c-2.3,0-4.2,1.6-4.6,3.9C38.3,57.6,37.3,58.5,36.2,58.5z M30.9,56h5.2
	c0.6-3.5,3.6-6,7.1-6c1.5,0,3,0.5,4.2,1.4l0,0l3.7-3.7c0.1-0.1,0.1-0.2,0-0.2c-0.8-1.1-1.3-2.6-1.5-4.2c-0.3-4.2,2-6.9,6.2-7.2
	c0,0,0.1,0,0.1-0.1v-5.5c0,0,0-0.1-0.1-0.1c-4.7-1.5-7-4.2-6.2-7.2c0.1-0.2,0.1-0.4,0.2-0.6c0.3-1.1,0.6-2.2,1.2-3.2
	c0,0,0-0.1,0-0.2l-3.7-3.7c0,0,0,0,0,0c-1.2,0.9-2.7,1.4-4.2,1.4c-3.5,0-6.5-2.5-7.1-5.9h-5.2c-0.6,3.5-3.6,6-7.1,6
	c-1.5,0-3-0.5-4.2-1.4l0,0l-3.8,3.8c0,0,0,0.1,0,0.2c0.8,1.2,1.2,2.5,1.2,4c0,3.5-2.5,6.5-5.9,7.1v5.5c3.5,0.6,6,3.6,6,7.1
	c0,1.5-0.5,3-1.4,4.2l0,0l4,4c0,0,0,0,0,0c1.2-0.9,2.7-1.4,4.2-1.4C27.4,50.1,30.4,52.6,30.9,56z"/>
<path class="st0" d="M33.5,44.2c-5.9,0-10.7-4.8-10.7-10.7s4.8-10.7,10.7-10.7s10.7,4.8,10.7,10.7S39.4,44.2,33.5,44.2z M33.5,25.5
	c-4.4,0-8,3.6-8,8s3.6,8,8,8s8-3.6,8-8S38,25.5,33.5,25.5z"/>
</svg>
